<svg xmlns="http://www.w3.org/2000/svg" viewBox="0 0 1112.057 829.803">
  <g id="Layer_8" data-name="Layer 8">
    <g>
      <polygon points="1031.183 736.235 1045.775 827.924 945.428 827.924 963.406 736.235 1031.183 736.235" fill="#262626"></polygon>
      <polygon points="1031.183 736.235 1045.775 827.924 945.428 827.924 963.406 736.235 1031.183 736.235" fill="#fff" opacity="0.2"></polygon>
      <path d="M998.154,736.526a.921.921,0,0,1-.156-.013.95.95,0,0,1-.782-1.092l27.636-166.752a.95.95,0,0,1,1.874.31L999.09,735.731A.951.951,0,0,1,998.154,736.526Z" fill="#494949"></path>
      <path d="M1004.668,698.733a.95.95,0,0,1-.382-1.82l67.475-29.5a.95.95,0,0,1,.761,1.74l-67.475,29.5A.929.929,0,0,1,1004.668,698.733Z" fill="#494949"></path>
      <path d="M1008.011,670.179a.954.954,0,0,1-.352-.156l-45.517-32.516a.95.95,0,1,1,1.1-1.547l45.517,32.517a.95.95,0,0,1-.752,1.7Z" fill="#494949"></path>
      <ellipse cx="1070.867" cy="678.997" rx="39.855" ry="46.183" transform="translate(-190.17 546.416) rotate(-26.375)" fill="#0cbc8b"></ellipse>
      <path d="M1096.329,713.771c-19.718,9.778-44.893-.821-56.223-23.67-7.684-15.5-7.03-32.647.346-45.136a34.642,34.642,0,0,1,9.9-7.347c19.719-9.778,44.893.82,56.223,23.67,7.689,15.5,7.034,32.655-.346,45.136A34.647,34.647,0,0,1,1096.329,713.771Z" fill="#fff" opacity="0.5"></path>
      <ellipse cx="1026.739" cy="571.237" rx="39.585" ry="41.433" transform="translate(112.788 1309.613) rotate(-68.024)" fill="#0cbc8b"></ellipse>
      <path d="M1065.162,586.74c-.309.766-.641,1.512-1,2.248-10.48,14.776-30.7,20.8-48.979,13.421-21.22-8.563-31.791-31.941-23.61-52.215.309-.766.642-1.512,1-2.249,10.48-14.776,30.7-20.8,48.979-13.42C1062.772,543.088,1073.343,566.466,1065.162,586.74Z" fill="#fff" opacity="0.5"></path>
      <ellipse cx="954.373" cy="633.979" rx="40.5" ry="34.951" transform="translate(-57.792 1170.896) rotate(-61.54)" fill="#0cbc8b"></ellipse>
      <path d="M930.95,663.641c16.969,9.2,39.369.713,50.027-18.95,7.228-13.335,7.2-28.386,1.137-39.567a30.383,30.383,0,0,0-8.441-6.754c-16.968-9.2-39.368-.713-50.026,18.95-7.233,13.343-7.207,28.394-1.137,39.567A30.379,30.379,0,0,0,930.95,663.641Z" fill="#fff" opacity="0.5"></path>
    </g>
    <g>
      <g>
        <g>
          <ellipse cx="406.145" cy="89.8" rx="31.227" ry="20.363" transform="translate(189.612 444.95) rotate(-71.097)" fill="#f4f4f4"></ellipse>
          <ellipse cx="378.072" cy="62.19" rx="15.05" ry="23.003" transform="translate(7.846 160.875) rotate(-24.266)" fill="#f4f4f4"></ellipse>
        </g>
        <path d="M373.194,110.081h40.533a13.442,13.442,0,0,1,13.442,13.442v18.441a13.442,13.442,0,0,1-13.442,13.442H373.194a0,0,0,0,1,0,0V110.081a0,0,0,0,1,0,0Z" fill="#f4f4f4"></path>
        <g opacity="0.05">
          <path d="M373.194,110.081h40.533a13.442,13.442,0,0,1,13.442,13.442v18.441a13.442,13.442,0,0,1-13.442,13.442H373.194a0,0,0,0,1,0,0V110.081a0,0,0,0,1,0,0Z" fill="#292a2e"></path>
        </g>
        <g opacity="0.05">
          <path d="M421.992,78.79l-.051,0a.5.5,0,0,1-.39-.263,1.581,1.581,0,0,1-.029-1.138,5.176,5.176,0,0,0-.167-2.953.5.5,0,1,1,.937-.349,6.178,6.178,0,0,1,.329,2.826,8.811,8.811,0,0,1,1.928-1.332.5.5,0,1,1,.449.892,8.305,8.305,0,0,0-2.62,2.138A.5.5,0,0,1,421.992,78.79Z" fill="#292a2e"></path>
          <path d="M406.833,66.884a.485.485,0,0,1-.19-.038,1.548,1.548,0,0,1-.739-.861,4.975,4.975,0,0,0-1.961-2.159.5.5,0,0,1,.5-.867,5.94,5.94,0,0,1,2.01,1.949,9.226,9.226,0,0,1,.654-2.287.5.5,0,1,1,.916.4,8.667,8.667,0,0,0-.688,3.368.5.5,0,0,1-.5.5Z" fill="#292a2e"></path>
          <path d="M394.052,83.01a.5.5,0,0,1-.19-.037,1.535,1.535,0,0,1-.735-.854,5,5,0,0,0-1.966-2.167.5.5,0,0,1,.5-.867,5.946,5.946,0,0,1,2.011,1.95,9.189,9.189,0,0,1,.652-2.288.5.5,0,1,1,.916.4,8.651,8.651,0,0,0-.686,3.367.5.5,0,0,1-.5.5Z" fill="#292a2e"></path>
          <path d="M407.62,80.572a.513.513,0,0,1-.189-.037,1.54,1.54,0,0,1-.738-.86,5,5,0,0,0-1.963-2.162.5.5,0,1,1,.5-.867,5.962,5.962,0,0,1,2.008,1.949,9.2,9.2,0,0,1,.653-2.287.5.5,0,1,1,.916.4,8.633,8.633,0,0,0-.687,3.367.5.5,0,0,1-.5.5Z" fill="#292a2e"></path>
          <path d="M416.25,94.669a.51.51,0,0,1-.228-.055.5.5,0,0,1-.268-.386,1.563,1.563,0,0,1,.379-1.066,5.139,5.139,0,0,0,.9-2.812.5.5,0,0,1,.5-.5h0a.5.5,0,0,1,.5.5,6.143,6.143,0,0,1-.712,2.77,8.675,8.675,0,0,1,2.284-.521.506.506,0,0,1,.541.456.5.5,0,0,1-.457.54,8.131,8.131,0,0,0-3.2,1A.49.49,0,0,1,416.25,94.669Z" fill="#292a2e"></path>
          <path d="M395.2,103.356a.5.5,0,0,1-.205-.044,1.554,1.554,0,0,1-.711-.885,5,5,0,0,0-1.895-2.219.5.5,0,0,1,.525-.852,5.971,5.971,0,0,1,1.949,2.012,9.25,9.25,0,0,1,.722-2.266.5.5,0,1,1,.9.43,8.647,8.647,0,0,0-.789,3.344.5.5,0,0,1-.5.48Z" fill="#292a2e"></path>
          <path d="M407.723,108a.436.436,0,0,1-.051,0,.5.5,0,0,1-.392-.264,1.585,1.585,0,0,1-.029-1.132,5.189,5.189,0,0,0-.166-2.958.5.5,0,0,1,.936-.351,6.172,6.172,0,0,1,.33,2.828,8.776,8.776,0,0,1,1.927-1.333.5.5,0,0,1,.45.892,8.306,8.306,0,0,0-2.62,2.139A.5.5,0,0,1,407.723,108Z" fill="#292a2e"></path>
        </g>
        <g opacity="0.05">
          <path d="M385.266,60.287l-.051,0a.5.5,0,0,1-.391-.263,1.58,1.58,0,0,1-.028-1.138,5.176,5.176,0,0,0-.168-2.953.5.5,0,0,1,.937-.349,6.165,6.165,0,0,1,.33,2.826,8.805,8.805,0,0,1,1.927-1.332.5.5,0,0,1,.45.892,8.309,8.309,0,0,0-2.621,2.138A.5.5,0,0,1,385.266,60.287Z" fill="#292a2e"></path>
          <path d="M374.755,49.093a.5.5,0,0,1-.19-.037,1.537,1.537,0,0,1-.737-.859,4.991,4.991,0,0,0-1.964-2.162.5.5,0,0,1,.5-.867,5.964,5.964,0,0,1,2.009,1.949,9.224,9.224,0,0,1,.652-2.287.5.5,0,0,1,.659-.258.5.5,0,0,1,.257.658,8.651,8.651,0,0,0-.686,3.367.5.5,0,0,1-.5.5Z" fill="#292a2e"></path>
          <path d="M373.069,61a.5.5,0,0,1-.19-.038,1.548,1.548,0,0,1-.738-.862,4.988,4.988,0,0,0-1.961-2.159.5.5,0,1,1,.5-.867,5.94,5.94,0,0,1,2.01,1.949,9.225,9.225,0,0,1,.653-2.287.5.5,0,1,1,.916.4,8.668,8.668,0,0,0-.688,3.369.5.5,0,0,1-.223.412A.51.51,0,0,1,373.069,61Z" fill="#292a2e"></path>
          <path d="M381.7,75.1a.5.5,0,0,1-.228-.055.5.5,0,0,1-.269-.387,1.579,1.579,0,0,1,.379-1.064,5.144,5.144,0,0,0,.9-2.813.5.5,0,0,1,.5-.495h0a.5.5,0,0,1,.5.5,6.145,6.145,0,0,1-.712,2.768,8.593,8.593,0,0,1,2.285-.52.512.512,0,0,1,.539.457.5.5,0,0,1-.457.539,8.1,8.1,0,0,0-3.2,1A.492.492,0,0,1,381.7,75.1Z" fill="#292a2e"></path>
          <path d="M371.242,71.993a1.609,1.609,0,0,1-.947-.419,4.826,4.826,0,0,0-2.711-.985.5.5,0,0,1-.484-.516.493.493,0,0,1,.515-.484,5.79,5.79,0,0,1,2.675.782,9.254,9.254,0,0,1-.459-2.359.5.5,0,0,1,.471-.527.475.475,0,0,1,.527.471,8.662,8.662,0,0,0,.909,3.311.5.5,0,0,1-.395.72A.881.881,0,0,1,371.242,71.993Z" fill="#292a2e"></path>
        </g>
      </g>
      <g>
        <rect x="235.555" y="122.388" width="111.51" height="32" transform="translate(582.62 276.776) rotate(180)" fill="#f4f4f4"></rect>
        <rect x="235.555" y="122.388" width="111.51" height="32" transform="translate(582.62 276.776) rotate(180)" fill="#292a2e" opacity="0.05"></rect>
        <rect x="250.53" y="122.388" width="14.612" height="32" transform="translate(515.671 276.776) rotate(180)" fill="#fff"></rect>
        <rect x="272.063" y="128.471" width="60.754" height="18.963" transform="translate(604.879 275.904) rotate(180)" fill="#fff"></rect>
      </g>
      <g>
        <rect x="208.967" y="90.419" width="109.978" height="32" transform="translate(527.912 212.837) rotate(-180)" fill="#f4f4f4"></rect>
        <rect x="289.765" y="90.419" width="14.411" height="32" transform="translate(593.941 212.837) rotate(-180)" fill="#292a2e" opacity="0.05"></rect>
        <rect x="223.02" y="96.501" width="59.919" height="18.963" transform="translate(505.959 211.965) rotate(-180)" fill="#fff"></rect>
      </g>
      <g>
        <rect x="123.572" y="85.608" width="111.51" height="32" transform="translate(373.075 31.292) rotate(130.517)" fill="#f4f4f4"></rect>
        <rect x="150.274" y="111.056" width="14.612" height="32" transform="translate(356.545 89.805) rotate(130.517)" fill="#292a2e" opacity="0.05"></rect>
        <rect x="155.85" y="83.382" width="60.754" height="18.963" transform="translate(377.809 11.622) rotate(130.517)" fill="#292a2e" opacity="0.05"></rect>
      </g>
      <rect x="116.817" y="153.804" width="321.971" height="12.652" fill="#f4f4f4"></rect>
    </g>
    <g>
      <rect id="c_3_c" x="609.936" width="405.081" height="405.081" fill="#f4f4f4"></rect>
      <rect id="c_3_c-2" data-name="c_3_c" x="1015.017" width="4.643" height="405.081" fill="#f4f4f4"></rect>
      <rect id="c_3_c-3" data-name="c_3_c" x="1015.017" width="4.643" height="405.081" fill="#292a2e" opacity="0.05"></rect>
      <polygon id="c_3_c-4" data-name="c_3_c" points="916.884 279.134 916.884 173.152 830.069 173.152 830.069 234.725 695.592 234.725 695.592 343.749 638.437 343.749 638.437 405.081 695.592 405.081 706.603 405.081 995.531 405.081 995.531 279.134 916.884 279.134" fill="#292a2e" opacity="0.05"></polygon>
      <g id="c_3_wh">
        <rect id="c_3_wh-2" data-name="c_3_wh" x="841.213" y="184.659" width="63.22" height="11.507" fill="#fffffa" opacity="0.34"></rect>
        <rect id="c_3_wh-3" data-name="c_3_wh" x="841.213" y="208.505" width="63.22" height="11.507" fill="#fffffa" opacity="0.34"></rect>
        <rect id="c_3_wh-4" data-name="c_3_wh" x="841.213" y="232.35" width="63.22" height="11.507" fill="#fffffa" opacity="0.34"></rect>
      </g>
      <g id="c_3_wh-5" data-name="c_3_wh">
        <rect id="c_3_wh-6" data-name="c_3_wh" x="972.668" y="290.304" width="11.652" height="11.507" fill="#fffffa" opacity="0.34"></rect>
        <rect id="c_3_wh-7" data-name="c_3_wh" x="972.668" y="314.15" width="11.652" height="11.507" fill="#fffffa" opacity="0.34"></rect>
        <rect id="c_3_wh-8" data-name="c_3_wh" x="972.668" y="337.995" width="11.652" height="11.507" fill="#fffffa" opacity="0.34"></rect>
        <rect id="c_3_wh-9" data-name="c_3_wh" x="951.112" y="290.304" width="11.652" height="11.507" fill="#fffffa" opacity="0.34"></rect>
        <rect id="c_3_wh-10" data-name="c_3_wh" x="951.112" y="314.15" width="11.652" height="11.507" fill="#fffffa" opacity="0.34"></rect>
        <rect id="c_3_wh-11" data-name="c_3_wh" x="951.112" y="337.995" width="11.652" height="11.507" fill="#fffffa" opacity="0.34"></rect>
        <rect id="c_3_wh-12" data-name="c_3_wh" x="930.138" y="290.304" width="11.652" height="11.507" fill="#fffffa" opacity="0.34"></rect>
        <rect id="c_3_wh-13" data-name="c_3_wh" x="930.138" y="314.15" width="11.652" height="11.507" fill="#fffffa" opacity="0.34"></rect>
        <rect id="c_3_wh-14" data-name="c_3_wh" x="930.138" y="337.995" width="11.652" height="11.507" fill="#fffffa" opacity="0.34"></rect>
      </g>
      <polygon points="1015.017 200.268 933.508 200.268 933.508 0 926.767 0 926.767 200.268 706.603 200.268 706.603 0 699.862 0 699.862 200.268 609.936 200.268 609.936 207.009 699.862 207.009 699.862 405.081 706.603 405.081 706.603 207.009 926.767 207.009 926.767 405.081 933.508 405.081 933.508 207.009 1015.017 207.009 1015.017 200.268" fill="#fff"></polygon>
      <rect id="c_3_c-5" data-name="c_3_c" x="593.799" y="404.592" width="437.355" height="13.471" fill="#f4f4f4"></rect>
      <rect id="c_3_c-6" data-name="c_3_c" x="593.799" y="404.592" width="437.355" height="13.471" fill="#292a2e" opacity="0.1"></rect>
      <rect id="c_3_c-7" data-name="c_3_c" x="1031.154" y="404.592" width="6.314" height="13.471" fill="#292a2e" opacity="0.1"></rect>
      <rect id="c_3_c-8" data-name="c_3_c" x="1031.154" y="404.592" width="6.314" height="13.471" fill="#292a2e" opacity="0.1"></rect>
    </g>
    <g>
      <path d="M845.365,657.405H157.34a32.173,32.173,0,0,0-32.173,32.173v19.816a32.174,32.174,0,0,0,32.173,32.173h38.914l-20.79,87.345h20.058L227.4,741.567h547.7l31.186,87.345h20.95l-20.791-87.345h38.914a32.173,32.173,0,0,0,32.173-32.173V689.578A32.173,32.173,0,0,0,845.365,657.405Z" fill="#262626"></path>
      <path d="M845.365,657.405H157.34a32.174,32.174,0,0,0-32.173,32.173v19.816a32.173,32.173,0,0,0,32.173,32.172h38.914l-20.79,87.346h20.058L227.4,741.566h547.7l31.186,87.346h20.95l-20.791-87.346h38.914a32.172,32.172,0,0,0,32.173-32.172V689.578A32.173,32.173,0,0,0,845.365,657.405Z" fill="#fff" opacity="0.2"></path>
      <path d="M183.979,280.1H818.726a94.992,94.992,0,0,1,94.992,94.992v248.3a34.288,34.288,0,0,1-34.288,34.288H123.275a34.288,34.288,0,0,1-34.288-34.288v-248.3A94.992,94.992,0,0,1,183.979,280.1Z" fill="#367cff"></path>
      <path d="M183.979,280.1H818.726a94.992,94.992,0,0,1,94.992,94.992v248.3a34.288,34.288,0,0,1-34.288,34.288H123.275a34.288,34.288,0,0,1-34.288-34.288v-248.3A94.992,94.992,0,0,1,183.979,280.1Z" fill="#fff" opacity="0.74"></path>
      <g>
        <path d="M968.826,397.806A48.588,48.588,0,0,0,907.8,429.387L843.09,606.141H159.615L94.908,429.387A48.59,48.59,0,1,0,2.3,458.835L77.773,669.454a48.589,48.589,0,0,0,46.305,33.866H878.627a48.589,48.589,0,0,0,46.305-33.866l75.476-210.619A48.589,48.589,0,0,0,968.826,397.806Z" fill="#367cff"></path>
        <path d="M968.826,397.806A48.588,48.588,0,0,0,907.8,429.387L843.09,606.141H159.615L94.908,429.387A48.59,48.59,0,1,0,2.3,458.835L77.773,669.454a48.589,48.589,0,0,0,46.305,33.866H878.627a48.589,48.589,0,0,0,46.305-33.866l75.476-210.619A48.589,48.589,0,0,0,968.826,397.806Z" fill="#fff" opacity="0.87"></path>
      </g>
    </g>
    <path d="M1092.673,829.8H20a.892.892,0,1,1,0-1.783H1092.673a.892.892,0,1,1,0,1.783Z" fill="#292a2e"></path>
    <g opacity="0.65">
      <path d="M1092.673,829.8H20a.892.892,0,1,1,0-1.783H1092.673a.892.892,0,1,1,0,1.783Z" fill="#292a2e"></path>
    </g>
    <g>
      <path d="M722.815,529.709,532.227,390.834a51.427,51.427,0,0,0-55.067-3.91l-3.61,1.956L248.664,503.423l66.767,101.238,186.2-122.337L677.29,595.586Z" fill="#262626"></path>
      <path d="M722.815,529.709,532.227,390.834a51.427,51.427,0,0,0-55.067-3.91l-3.61,1.956L248.664,503.423l66.767,101.238,186.2-122.337L677.29,595.586Z" fill="#0a0a0a" opacity="0.8"></path>
      <path id="st" d="M120.621,399.7a.445.445,0,0,1-.316-.818l22.107-13.458a.446.446,0,1,1,.464.761l-22.107,13.459A.439.439,0,0,1,120.621,399.7Z" fill="#0c0c0c"></path>
      <path d="M761.642,547.022s30.369-1.745,35.732-29.241,26.639-18.528,26.639-18.528l-14.19,105.92-52.92-7.09Z" fill="#367cff"></path>
      <path d="M283.725,480.378,141.615,490.9s-6.655,27.242,3.238,58.172c8.2,25.633,27.2,55.353,70.848,56.183h553.15l3.679-72.6Z" fill="#262626"></path>
      <g>
        <g>
          <path d="M228.99,177.058s11.425-12.691,10.24-36.58c-.918-18.5-15.264-3.621-15.264-3.621s-.791-13.313-9.994-10.195-11.863,17.778-11.863,17.778" fill="#0c0c0c"></path>
          <path d="M165.388,137.644s-45.945,14.114-16.676,74.408l4.206-.525,8.537-1.067" fill="#0c0c0c"></path>
          <path id="sk" d="M237.616,263.728c-.212.013,4.852,38.439-39.914,43.67-30.991,3.626-48.157-26.676-48.857-26.54,3.158-1.338,7.022-3.188,8.569-3.866a18.152,18.152,0,0,0,10.732-17.626c-.149-5.557-7-32.808-7.585-38.345l48.917,1.388c1.572,11.631,2.15,39.19,19.136,40.8C231.44,263.471,234.459,263.631,237.616,263.728Z" fill="#E98862"></path>
          <path id="sh" d="M216.33,254.278a34.579,34.579,0,0,1-2.82-7,79.007,79.007,0,0,1-2.97-16.986,52.365,52.365,0,0,1-28.114-6.337c-.248,3.384-2.317,18.362-.4,21.161C185.651,250.4,199.259,257.583,216.33,254.278Z" fill="#0c0c0c" opacity="1"></path>
          <path d="M205.2,248.634c-18.82,1.922-43.224-5.48-48.4-30.529l-4.674-22.6c-5.181-25.049,3.775-48.076,27.361-52.954h0c23.585-4.878,45.413,11.782,50.594,36.831l2.07,10.006a77.166,77.166,0,0,1,1.241,10.441c.535,9.259,1.311,23.343-3.017,33.81C226.28,243.518,217.22,247.406,205.2,248.634Z" fill="#E98862"></path>
          <path d="M209.336,224.019a24.844,24.844,0,0,0,10.7-4.272.608.608,0,0,0-.681-1.007c-6.889,4.656-13.8,5.507-19.979,2.462a3.845,3.845,0,0,0-.385-.175.608.608,0,0,0-.393,1.15c.048.019.129.06.241.116A18.22,18.22,0,0,0,209.336,224.019Z" fill="#0c0c0c" opacity="1"></path>
          <path d="M210.253,229.711a12.441,12.441,0,0,0,2.059-.45.608.608,0,0,0-.356-1.162c-4.047,1.239-6.386-.272-6.484-.338a.608.608,0,0,0-.681,1.007A8.243,8.243,0,0,0,210.253,229.711Z" fill="#0c0c0c" opacity="1"></path>
          <circle cx="223.712" cy="188.543" r="2.966" fill="#0c0c0c"></circle>
          <circle cx="197.768" cy="193.098" r="2.966" fill="#0c0c0c"></circle>
          <path d="M159.835,225.434c-7.168,1.482-14.564-4.984-16.046-12.152s3.51-12.321,10.677-13.8l4.687,4.039L166,224.159Z" fill="#E98862"></path>
          <path d="M308.628,336.736c1.771,16.6,11.639,120.376,14.2,140.747L141.751,512.539c-4.552-17.939-24.58-96.354-35.393-131.062-10.319-33.12-18.58-47.5-16.279-58.861,4.059-20.034,26.807-33.033,42.864-38.458,9.806-3.313,24.761-7.222,24.761-7.222s6.3,25.693,37.161,21.217c42-6.1,33.542-34.905,33.748-34.945,6.743-1.305,44.4-3.507,54.733.7,14.6,5.939,20.659,16.711,22.858,27.261C308.736,303.313,306.622,317.911,308.628,336.736Z" fill="#367cff"></path>
          <g>
            <path d="M164.748,212.5s-4.453-36,5.9-40.282c6.893-2.85,26.265,3.959,41.788-2.235,6.791-2.71,13.823-2.261,15.149.938.525,1.267,1.249-18.536-12.578-30.781-11.009-9.75-40.406-7.414-52.769-1.124-34.231,17.414-8.946,62.31-8.946,62.31l3.988,11.937Z" fill="#0c0c0c"></path>
            <g opacity="1">
              <path d="M212.056,214.793l.046-.007c2.311-.472,6.134-1.521,5.784-3.25-.294-1.432-7.37-16.094-8.177-17.761a.6.6,0,0,0-1.081.523c3.139,6.492,7.881,16.5,8.08,17.478-.144.455-2.453,1.344-4.845,1.832a.6.6,0,0,0,.193,1.185Z" fill="#0c0c0c"></path>
            </g>
            <path d="M213.251,179.853a13.669,13.669,0,0,1,3.275-2.029,12.1,12.1,0,0,1,3.687-.987,11.635,11.635,0,0,1,1.931-.023,10.61,10.61,0,0,1,1.888.377,11.522,11.522,0,0,1,3.385,1.659.831.831,0,0,1-.862,1.421l-.075-.042a9.752,9.752,0,0,0-2.922-1.224,8.719,8.719,0,0,0-1.539-.215,9.533,9.533,0,0,0-1.547.115,9.87,9.87,0,0,0-2.962.989,11.513,11.513,0,0,0-2.54,1.774l-.051.049a1.251,1.251,0,0,1-1.726-1.812C213.211,179.888,213.232,179.869,213.251,179.853Z" fill="#0c0c0c"></path>
            <path d="M198.542,184a14.926,14.926,0,0,0-3.375-.345,14.671,14.671,0,0,0-3.428.43,11.627,11.627,0,0,0-3.186,1.28,12.433,12.433,0,0,0-2.713,2.135l-.054.053a.832.832,0,0,1-1.194-1.159,14.173,14.173,0,0,1,2.975-2.624,13.553,13.553,0,0,1,3.607-1.69,16.9,16.9,0,0,1,3.906-.716,17.157,17.157,0,0,1,4.031.2,1.251,1.251,0,0,1-.43,2.465l-.066-.013Z" fill="#0c0c0c"></path>
          </g>
          <ellipse cx="199.35" cy="141.256" rx="10.02" ry="14.749" transform="translate(-39.124 88.114) rotate(-22.758)" fill="#0c0c0c"></ellipse>
        </g>
        <g>
          <path d="M437.774,236.858a4.835,4.835,0,0,0-7.289,1.681l2.779-5.618a5.015,5.015,0,0,0-1.837-6.6,4.831,4.831,0,0,0-6.7,2.066l1.258-2.542a4.949,4.949,0,0,0-1.292-6.127,4.837,4.837,0,0,0-7.29,1.681l-2.2,4.453a4.831,4.831,0,0,0-2.188-6.472h0c-2.45-1.421-5.266.636-6.383,2.894l-10.4,20.129.3-6.518a5.015,5.015,0,0,0-4.329-5.305,4.832,4.832,0,0,0-5.311,4.582l-2.385,51.176,15.562,1.17A24.334,24.334,0,0,0,423.7,274.038l15.365-31.053A4.949,4.949,0,0,0,437.774,236.858Z" fill="#E98862"></path>
          <path d="M405.369,244.8a.448.448,0,0,0,.592-.2l9.865-19.155a.446.446,0,1,0-.793-.408L405.168,244.2a.445.445,0,0,0,.192.6Z" fill="#E98862"></path>
          <path d="M413.7,249.387a.447.447,0,0,0,.591-.2l11.01-21.377a.446.446,0,0,0-.192-.6.462.462,0,0,0-.6.193L413.5,248.782a.446.446,0,0,0,.193.6Z" fill="#E98862"></path>
          <path d="M422.689,254.4a.447.447,0,0,0,.591-.2l8.782-17.052a.446.446,0,1,0-.793-.408L422.487,253.8a.445.445,0,0,0,.192.6Z" fill="#E98862"></path>
          <g opacity="0.1">
            <path d="M405.369,244.8a.448.448,0,0,0,.592-.2l9.865-19.155a.446.446,0,1,0-.793-.408L405.168,244.2a.445.445,0,0,0,.192.6Z" fill="#0c0c0c"></path>
          </g>
          <g opacity="0.1">
            <path d="M413.7,249.387a.447.447,0,0,0,.591-.2l11.01-21.377a.446.446,0,0,0-.192-.6.462.462,0,0,0-.6.193L413.5,248.782a.446.446,0,0,0,.193.6Z" fill="#0c0c0c"></path>
          </g>
          <g opacity="0.1">
            <path d="M422.689,254.4a.447.447,0,0,0,.591-.2l8.782-17.052a.446.446,0,1,0-.793-.408L422.487,253.8a.445.445,0,0,0,.192.6Z" fill="#0c0c0c"></path>
          </g>
        </g>
        <path d="M376.406,261.633l-21.055,79.79-56.142-65.994-52.174,41.823,98.227,115.463.47.588a33.086,33.086,0,0,0,58.121-13.672l31.356-143.837Z" fill="#367cff"></path>
        <path id="st-2" data-name="st" d="M314.312,413.645a.415.415,0,0,1-.079.008.446.446,0,0,1-.452-.44l-.757-54.307a.446.446,0,0,1,.892-.012l.756,54.307A.446.446,0,0,1,314.312,413.645Z" fill="#0c0c0c"></path>
        <g id="b">
          <rect x="279.806" y="323.786" width="47.253" height="57.951" transform="translate(-61.518 64.104) rotate(-10.957)" fill="snow"></rect>
          <path d="M283.755,375.423a18.508,18.508,0,1,1,14.653-21.689A18.53,18.53,0,0,1,283.755,375.423Zm-5.85-30.215a12.267,12.267,0,1,0,14.375,9.712A12.282,12.282,0,0,0,277.9,345.208Z" fill="snow"></path>
          <path d="M304.211,308.9a.892.892,0,0,1-.741-1.56c3.783-3.154,3.022-9.709.1-14.223a49.229,49.229,0,0,0-4.618-5.757,40.417,40.417,0,0,1-5.737-7.6,21.142,21.142,0,0,1,1.279-21.549.891.891,0,1,1,1.463,1.019,19.319,19.319,0,0,0-1.169,19.691,38.462,38.462,0,0,0,5.5,7.255,50.7,50.7,0,0,1,4.781,5.972c3.3,5.1,4.259,12.631-.455,16.562A.9.9,0,0,1,304.211,308.9Z" fill="snow"></path>
          <path d="M283,295a.894.894,0,0,1-.872-.325c-3.468-4.423-7.784-9.926-8.667-16.37-.7-5.124.811-10.109,2.274-14.931a56.717,56.717,0,0,0,2.22-9.076.892.892,0,0,1,1.769.227,58.067,58.067,0,0,1-2.283,9.366c-1.472,4.852-2.862,9.435-2.213,14.172.817,5.965,4.794,11.037,8.3,15.512a.891.891,0,0,1-.151,1.251A.881.881,0,0,1,283,295Z" fill="snow"></path>
        </g>
        <g id="ha">
          <path id="sk-2" data-name="sk" d="M282.786,373.209a4.748,4.748,0,0,0-7.072-1.986l5.041-3.531a4.924,4.924,0,0,0,1.525-6.549,4.744,4.744,0,0,0-6.748-1.377l2.281-1.6a4.861,4.861,0,0,0,1.774-5.888,4.75,4.75,0,0,0-7.073-1.986l-4,2.8a4.745,4.745,0,0,0,1.165-6.608h0c-1.442-2.378-4.837-1.932-6.863-.513l-8.213,5.325,2.161-3.248a4.925,4.925,0,0,0-1.23-6.611,4.745,4.745,0,0,0-6.735,1.446l-25,40.744,12.857,8.34a23.9,23.9,0,0,0,26.711-.473l17.638-12.4A4.859,4.859,0,0,0,282.786,373.209Z" fill="#E98862"></path>
          <path id="sk-3" data-name="sk" d="M263.521,356.652a.445.445,0,0,1-.324-.813l5.569-3.538a.446.446,0,0,1,.478.753l-5.569,3.537A.439.439,0,0,1,263.521,356.652Z" fill="#E98862"></path>
          <path id="sk-4" data-name="sk" d="M268.536,364.526a.446.446,0,0,1-.327-.812l7.6-4.913a.445.445,0,1,1,.483.748l-7.6,4.914A.463.463,0,0,1,268.536,364.526Z" fill="#E98862"></path>
          <path id="sk-5" data-name="sk" d="M273.919,373.085a.446.446,0,0,1-.317-.818l3.645-2.236a.446.446,0,1,1,.466.76l-3.645,2.236A.44.44,0,0,1,273.919,373.085Z" fill="#E98862"></path>
          <path id="sh-2" data-name="sh" d="M263.521,356.652a.445.445,0,0,1-.324-.813l5.569-3.538a.446.446,0,0,1,.478.753l-5.569,3.537A.439.439,0,0,1,263.521,356.652Z" fill="#0c0c0c" opacity="0.17"></path>
          <path id="sh-3" data-name="sh" d="M268.536,364.526a.446.446,0,0,1-.327-.812l7.6-4.913a.445.445,0,1,1,.483.748l-7.6,4.914A.463.463,0,0,1,268.536,364.526Z" fill="#0c0c0c" opacity="0.17"></path>
          <path id="sh-4" data-name="sh" d="M273.919,373.085a.446.446,0,0,1-.317-.818l3.645-2.236a.446.446,0,1,1,.466.76l-3.645,2.236A.44.44,0,0,1,273.919,373.085Z" fill="#0c0c0c" opacity="0.17"></path>
        </g>
        <path id="b-2" data-name="b" d="M104.832,511.093A33.434,33.434,0,0,1,65.488,472.8l23.9-144.116a33.434,33.434,0,0,1,65.966,10.941l-11.43,68.917,87.949-56.632,35.111,55.148-150.2,99.183A33.383,33.383,0,0,1,104.832,511.093Z" fill="#367cff"></path>
        <path id="st-3" data-name="st" d="M135.627,494.3a.446.446,0,0,1-.33-.81l131.074-86.564-35.025-54.157L142.881,408.18a.445.445,0,0,1-.675-.458l7.435-40.806a.446.446,0,0,1,.877.16l-7.254,39.812,87.981-55.1a.448.448,0,0,1,.611.136l35.5,54.9a.446.446,0,0,1-.128.614L135.788,494.237A.433.433,0,0,1,135.627,494.3Z" fill="#0c0c0c"></path>
        <path d="M350.326,375.38a.454.454,0,0,1-.152,0,.447.447,0,0,1-.373-.509l5.669-36.8a.446.446,0,0,1,.881.135l-5.669,36.8A.446.446,0,0,1,350.326,375.38Z" fill="#0c0c0c"></path>
        <path d="M388.538,242.949l.328-8.917a5.015,5.015,0,0,0-4.329-5.305,4.832,4.832,0,0,0-5.311,4.582l-.852,18.3" fill="#E98862"></path>
        <g>
          <polygon points="421.054 254.154 397.061 233.655 410.186 139.909 437.326 162.238 421.054 254.154" fill="#0cbc8b"></polygon>
          <path d="M408.243,160.71l3.189-18.043s3.54,13.758,22.183,21.011l-.667,14.762-25.56-9.344Z" fill="#0cbc8b"></path>
          <path d="M408.243,160.71l3.189-18.043s3.54,13.758,22.183,21.011l-.667,14.762-25.56-9.344Z" fill="#fff" opacity="0.49"></path>
          <path d="M429.265,165.367s-32.432-13.592-58.333-8.212l56.208,12.3Z" fill="#0cbc8b"></path>
          <path d="M429.265,165.367s-32.432-13.592-58.333-8.212l56.208,12.3Z" fill="#fff" opacity="0.81"></path>
          <polygon points="437.326 162.238 427.74 165.959 412.139 256.921 421.054 254.154 437.326 162.238" fill="#0cbc8b"></polygon>
          <polygon points="437.326 162.238 427.74 165.959 412.139 256.921 421.054 254.154 437.326 162.238" fill="#fff" opacity="0.25"></polygon>
          <polygon points="367.787 154.963 427.74 165.959 412.139 256.921 353.445 246.8 367.787 154.963" fill="#0cbc8b"></polygon>
        </g>
      </g>
    </g>
  </g>
</svg>